<?xml version="1.0" encoding="iso-8859-1"?>
<!-- Generator: Adobe Illustrator 19.0.0, SVG Export Plug-In . SVG Version: 6.00 Build 0)  -->
<svg version="1.1" id="Capa_1" xmlns="http://www.w3.org/2000/svg" xmlns:xlink="http://www.w3.org/1999/xlink" x="0px" y="0px"
	 viewBox="0 0 480.005 480.005" style="enable-background:new 0 0 480.005 480.005;" xml:space="preserve">
<path style="fill:#5A6470;" d="M350.491,467.312l-104-144c-0.104-0.136-0.28-0.184-0.384-0.312
	c-2.603-3.371-7.446-3.994-10.817-1.391c-0.521,0.402-0.988,0.87-1.391,1.391c-0.104,0.128-0.28,0.176-0.384,0.312l-104,144
	c-2.589,3.583-1.783,8.587,1.8,11.176c3.583,2.589,8.587,1.783,11.176-1.8l89.512-123.944V472c0,4.418,3.582,8,8,8s8-3.582,8-8
	V352.744l89.512,123.944c2.589,3.583,7.593,4.389,11.176,1.8C352.274,475.899,353.08,470.895,350.491,467.312L350.491,467.312z"/>
<path style="fill:#CFDFE8;" d="M64.003,56h352v272h-352V56z"/>
<path style="fill:#238892;" d="M48.003,8h384v48h-384V8z"/>
<path style="fill:#E9686A;" d="M304.003,304c-2.122,0-4.156-0.844-5.656-2.344l-24-24c-3.07-3.178-2.982-8.242,0.196-11.312
	c3.1-2.995,8.016-2.995,11.116,0l18.344,18.344l58.344-58.344c3.178-3.07,8.242-2.982,11.312,0.196c2.994,3.1,2.994,8.015,0,11.116
	l-64,64C308.159,303.156,306.124,304,304.003,304z"/>
<path style="fill:#FDBD40;" d="M160.003,104c-35.346,0-64,28.654-64,64s28.654,64,64,64s64-28.654,64-64h-64V104z"/>
<path style="fill:#FCF05A;" d="M160.003,104v64h64C224.003,132.654,195.349,104,160.003,104z"/>
<g>
	<g>
		<path id="SVGCleanerId_0" style="fill:#FDBD40;" d="M88.003,288h16v16h-16V288z"/>
	</g>
	<g>
		<path id="SVGCleanerId_1" style="fill:#FDBD40;" d="M120.003,288h120v16h-120V288z"/>
	</g>
	<g>
		<path id="SVGCleanerId_2" style="fill:#FDBD40;" d="M88.003,256h16v16h-16V256z"/>
	</g>
	<g>
		<path id="SVGCleanerId_3" style="fill:#FDBD40;" d="M120.003,256h120v16h-120V256z"/>
	</g>
	<g>
		<path id="SVGCleanerId_4" style="fill:#FDBD40;" d="M264.003,128h16v16h-16V128z"/>
	</g>
	<g>
		<path id="SVGCleanerId_5" style="fill:#FDBD40;" d="M296.003,128h96v16h-96V128z"/>
	</g>
	<g>
		<path id="SVGCleanerId_6" style="fill:#FDBD40;" d="M264.003,96h16v16h-16V96z"/>
	</g>
	<g>
		<path id="SVGCleanerId_7" style="fill:#FDBD40;" d="M296.003,96h96v16h-96V96z"/>
	</g>
	<g>
		<path id="SVGCleanerId_8" style="fill:#FDBD40;" d="M264.003,192h16v16h-16V192z"/>
	</g>
	<g>
		<path id="SVGCleanerId_9" style="fill:#FDBD40;" d="M296.003,192h96v16h-96V192z"/>
	</g>
	<g>
		<path id="SVGCleanerId_10" style="fill:#FDBD40;" d="M264.003,160h16v16h-16V160z"/>
	</g>
	<g>
		<path id="SVGCleanerId_11" style="fill:#FDBD40;" d="M296.003,160h96v16h-96V160z"/>
	</g>
</g>
<path d="M40.003,64h16v272h168.352l-94.84,131.312c-2.589,3.583-1.783,8.587,1.8,11.176c3.583,2.589,8.587,1.783,11.176-1.8
	l89.512-123.944V472c0,4.418,3.582,8,8,8s8-3.582,8-8V352.744l89.512,123.944c2.589,3.583,7.593,4.389,11.176,1.8
	c3.583-2.589,4.389-7.593,1.8-11.176l0,0L255.651,336h168.352V64h16V0h-400V64z M408.003,320h-336V64h336V320z M56.003,16h368v32
	h-368V16z"/>
<path d="M274.347,266.344c-3.123,3.124-3.123,8.188,0,11.312l24,24c3.124,3.123,8.188,3.123,11.312,0l64-64
	c3.069-3.178,2.982-8.243-0.196-11.312c-3.1-2.994-8.015-2.994-11.116,0l-58.344,58.344l-18.344-18.344
	C282.535,263.221,277.471,263.221,274.347,266.344L274.347,266.344z"/>
<path d="M160.003,240c36.645-0.05,67.42-27.586,71.528-64h8.472c4.418,0,8-3.582,8-8s-3.582-8-8-8h-8.472
	c-3.781-33.395-30.133-59.747-63.528-63.528V88c0-4.418-3.582-8-8-8s-8,3.582-8,8v8.472c-39.504,4.544-67.845,40.252-63.301,79.756
	C92.872,212.483,123.508,239.885,160.003,240z M215.363,160h-47.36v-47.36C192.531,116.206,211.796,135.472,215.363,160z
	 M152.003,112.64V168c0,4.418,3.582,8,8,8h55.36c-4.376,30.617-32.743,51.889-63.36,47.513
	c-30.617-4.376-51.889-32.743-47.513-63.36C108.01,135.518,127.367,116.161,152.003,112.64z"/>
<path id="SVGCleanerId_0_1_" d="M88.003,288h16v16h-16V288z"/>
<path id="SVGCleanerId_1_1_" d="M120.003,288h120v16h-120V288z"/>
<path id="SVGCleanerId_2_1_" d="M88.003,256h16v16h-16V256z"/>
<path id="SVGCleanerId_3_1_" d="M120.003,256h120v16h-120V256z"/>
<path id="SVGCleanerId_4_1_" d="M264.003,128h16v16h-16V128z"/>
<path id="SVGCleanerId_5_1_" d="M296.003,128h96v16h-96V128z"/>
<path id="SVGCleanerId_6_1_" d="M264.003,96h16v16h-16V96z"/>
<path id="SVGCleanerId_7_1_" d="M296.003,96h96v16h-96V96z"/>
<path id="SVGCleanerId_8_1_" d="M264.003,192h16v16h-16V192z"/>
<path id="SVGCleanerId_9_1_" d="M296.003,192h96v16h-96V192z"/>
<path id="SVGCleanerId_10_1_" d="M264.003,160h16v16h-16V160z"/>
<path id="SVGCleanerId_11_1_" d="M296.003,160h96v16h-96V160z"/>
<g>
</g>
<g>
</g>
<g>
</g>
<g>
</g>
<g>
</g>
<g>
</g>
<g>
</g>
<g>
</g>
<g>
</g>
<g>
</g>
<g>
</g>
<g>
</g>
<g>
</g>
<g>
</g>
<g>
</g>
</svg>
