<svg id="Layer_1" enable-background="new 0 0 511.984 511.984" height="512" viewBox="0 0 511.984 511.984" width="512" xmlns="http://www.w3.org/2000/svg"><g id="XMLID_315_"><path id="XMLID_1018_" d="m322.536 111.184c1.051-2.118 2.271-4.186 3.663-6.185 15.2-21.815 45.207-27.178 67.022-11.978s27.178 45.207 11.978 67.022c-1.393 1.999-2.91 3.859-4.533 5.579z" fill="#6d92ac"/><g id="XMLID_989_"><path id="XMLID_1017_" d="m337.235 435.123 42.471 56.079c9.085 11.996 26.174 14.355 38.169 5.271 11.996-9.085 14.355-26.174 5.271-38.17l-39.611-52.303z" fill="#6d92ac"/></g><path id="XMLID_677_" d="m189.451 111.184c-1.051-2.118-2.271-4.186-3.663-6.185-15.2-21.815-45.207-27.178-67.022-11.978s-27.178 45.207-11.978 67.022c1.393 1.999 2.91 3.859 4.533 5.579z" fill="#6d92ac"/><g id="XMLID_1008_"><path id="XMLID_1713_" d="m175.033 435.123-42.471 56.079c-9.085 11.996-26.174 14.355-38.169 5.271-11.996-9.085-14.355-26.174-5.271-38.17l39.612-52.303z" fill="#6d92ac"/></g><circle id="XMLID_1275_" cx="255.993" cy="289.971" fill="#c5d3de" r="193.353"/><circle id="XMLID_1274_" cx="255.993" cy="289.971" fill="#fff" r="144.459"/><g id="XMLID_385_"><path id="XMLID_388_" d="m446.457 324.935c-5.371-1.271-10.762 2.054-12.034 7.429-19.641 82.995-93.014 140.96-178.43 140.96-101.101 0-183.353-82.252-183.353-183.353s82.252-183.353 183.353-183.353c85.417 0 158.79 57.966 178.43 140.962 1.272 5.375 6.661 8.7 12.034 7.429 5.374-1.272 8.7-6.66 7.429-12.034-6.881-29.077-20.291-56.346-38.86-79.674 14.498-23.204 10.623-53.205-8.386-72.046l4.971-7.134c3.157-4.531 2.043-10.764-2.488-13.921-4.532-3.158-10.764-2.044-13.922 2.488l-2.304 3.306-43.987-47.155c-17.096-18.327-41.277-28.839-66.342-28.839h-53.148c-25.065 0-49.246 10.512-66.343 28.839l-43.987 47.154-2.304-3.306c-3.158-4.532-9.393-5.646-13.922-2.488-4.531 3.157-5.646 9.39-2.488 13.921l4.971 7.134c-19.022 18.855-22.888 48.885-8.352 72.096-27.743 34.766-44.353 78.786-44.353 126.62 0 51.113 18.961 97.876 50.211 133.641l-21.701 28.654c-6.007 7.931-8.565 17.727-7.204 27.582 1.36 9.855 6.478 18.591 14.409 24.598 6.713 5.083 14.607 7.539 22.442 7.539 11.273 0 22.422-5.085 29.736-14.744l20.731-27.374c28.307 14.966 60.542 23.458 94.728 23.458 33.17 0 65.854-8.211 94.948-23.541l20.793 27.457c7.315 9.66 18.462 14.744 29.736 14.744 7.834 0 15.73-2.456 22.442-7.54 7.932-6.006 13.049-14.742 14.409-24.597 1.361-9.855-1.197-19.651-7.204-27.582l-21.793-28.775c21.535-24.764 36.995-54.548 44.561-86.521 1.271-5.374-2.054-10.762-7.429-12.034zm-63.419-193.756c-13.325-10.674-27.928-19.563-43.379-26.525 12.859-12.021 32.833-13.887 47.845-3.428 15.011 10.459 20.179 29.844 13.356 46.07-5.605-5.702-11.549-11.092-17.822-16.117zm-205.337-88.697c13.328-14.288 32.178-22.482 51.718-22.482h53.148c19.54 0 38.391 8.194 51.718 22.482l29.802 31.947c-16.882.49-33.356 8.281-44.344 22.477-17.317-5.716-35.41-9.117-53.749-10.029v-23.544h11.667c5.522 0 10-4.477 10-10s-4.478-10-10-10h-43.334c-5.522 0-10 4.477-10 10s4.478 10 10 10h11.667v23.533c-18.693.91-36.727 4.362-53.773 10.006-10.989-14.175-27.45-21.954-44.32-22.444zm-53.218 58.745c15.005-10.456 34.972-8.594 47.832 3.415-22.975 10.414-43.675 24.987-61.155 42.74-6.875-16.244-1.714-35.678 13.323-46.155zm.108 383.938c-5.743 7.581-16.58 9.076-24.161 3.336-3.672-2.781-6.042-6.826-6.672-11.39s.555-9.099 3.336-12.771l19.816-26.165c8.383 7.871 17.43 15.04 27.049 21.414zm293.92-8.054c-.63 4.563-3 8.608-6.672 11.389-7.58 5.742-18.419 4.246-24.161-3.335l-19.419-25.642c5.075-3.356 10.011-6.94 14.779-10.76 4.237-3.394 8.324-6.957 12.261-10.667l19.876 26.244c2.781 3.673 3.966 8.208 3.336 12.771z"/><path id="XMLID_1027_" d="m255.993 135.512c-85.169 0-154.459 69.29-154.459 154.458 0 85.169 69.29 154.459 154.459 154.459s154.459-69.29 154.459-154.459c0-85.168-69.29-154.458-154.459-154.458zm108.9 164.459h25.188c-2.184 29.567-13.971 56.504-32.247 77.698l-17.765-17.765c-3.905-3.905-10.235-3.905-14.143 0-3.905 3.905-3.905 10.237 0 14.142l17.765 17.765c-21.194 18.276-48.131 30.063-77.698 32.247v-25.187c0-5.523-4.478-10-10-10s-10 4.477-10 10v25.187c-29.567-2.184-56.504-13.971-77.698-32.247l17.765-17.765c3.905-3.905 3.905-10.237 0-14.142-3.906-3.905-10.236-3.905-14.143 0l-17.765 17.765c-18.276-21.194-30.063-48.131-32.247-77.698h25.188c5.522 0 10-4.477 10-10s-4.478-10-10-10h-25.188c2.184-29.567 13.971-56.504 32.247-77.698l17.765 17.765c1.953 1.953 4.512 2.929 7.071 2.929s5.118-.977 7.071-2.929c3.905-3.905 3.905-10.237 0-14.142l-17.765-17.765c21.194-18.276 48.131-30.063 77.698-32.247v25.187c0 5.523 4.478 10 10 10s10-4.477 10-10v-25.187c29.567 2.184 56.504 13.971 77.698 32.247l-17.765 17.765c-3.905 3.905-3.905 10.237 0 14.142 1.953 1.953 4.512 2.929 7.071 2.929s5.118-.977 7.071-2.929l17.765-17.765c18.276 21.194 30.063 48.131 32.247 77.698h-25.188c-5.522 0-10 4.477-10 10s4.479 10 10.002 10z"/><path id="XMLID_1028_" d="m320.073 281.223h-63.939c-5.522 0-10 4.477-10 10v45.419c0 5.523 4.478 10 10 10s10-4.477 10-10v-35.419h53.939c5.522 0 10-4.477 10-10s-4.477-10-10-10z"/><path id="XMLID_1029_" d="m456.413 282.9c-1.86-1.86-4.44-2.93-7.07-2.93s-5.21 1.07-7.069 2.93c-1.86 1.86-2.931 4.44-2.931 7.07s1.07 5.21 2.931 7.07c1.859 1.86 4.439 2.93 7.069 2.93s5.21-1.07 7.07-2.93c1.87-1.86 2.93-4.44 2.93-7.07s-1.06-5.21-2.93-7.07z"/></g></g></svg>